<?xml version="1.0" encoding="UTF-8" standalone="no"?>
<svg
   xmlns:dc="http://purl.org/dc/elements/1.1/"
   xmlns:cc="http://creativecommons.org/ns#"
   xmlns:rdf="http://www.w3.org/1999/02/22-rdf-syntax-ns#"
   xmlns:svg="http://www.w3.org/2000/svg"
   xmlns="http://www.w3.org/2000/svg"
   xmlns:sodipodi="http://sodipodi.sourceforge.net/DTD/sodipodi-0.dtd"
   xmlns:inkscape="http://www.inkscape.org/namespaces/inkscape"
   version="1.1"
   id="svg2"
   width="443.33603"
   height="443.33603"
   viewBox="0 0 443.33603 443.33603"
   sodipodi:docname="logoFacebook.svg"
   inkscape:version="1.0.2 (e86c870879, 2021-01-15)">
  <metadata
     id="metadata8">
    <rdf:RDF>
      <cc:Work
         rdf:about="">
        <dc:format>image/svg+xml</dc:format>
        <dc:type
           rdf:resource="http://purl.org/dc/dcmitype/StillImage" />
        <dc:title></dc:title>
      </cc:Work>
    </rdf:RDF>
  </metadata>
  <defs
     id="defs6" />
  <sodipodi:namedview
     pagecolor="#ffffff"
     bordercolor="#666666"
     borderopacity="1"
     objecttolerance="10"
     gridtolerance="10"
     guidetolerance="10"
     inkscape:pageopacity="0"
     inkscape:pageshadow="2"
     inkscape:window-width="1312"
     inkscape:window-height="704"
     id="namedview4"
     showgrid="false"
     inkscape:zoom="0.7071068"
     inkscape:cx="227.67846"
     inkscape:cy="196.38682"
     inkscape:window-x="0"
     inkscape:window-y="0"
     inkscape:window-maximized="1"
     inkscape:current-layer="g10"
     inkscape:document-rotation="0" />
  <g
     inkscape:groupmode="layer"
     inkscape:label="Image"
     id="g10"
     transform="translate(142.90886,310.0853)">
    <circle
       style="opacity:1;fill:#ffffff;fill-opacity:1;stroke:#000000;stroke-width:16.5908;stroke-linejoin:round;stroke-miterlimit:4;stroke-dasharray:none;stroke-dashoffset:0;stroke-opacity:0.999896"
       id="path841"
       cx="78.759155"
       cy="-88.417282"
       r="213.37262" />
    <path
       style="opacity:1;fill:#000000;stroke-width:1.33333"
       d="m 70.549468,66.199003 c -35.76089,-3.38503 -54.4618,-9.13103 -81.380075,-25.00467 C -31.603301,28.944723 -41.412909,21.481323 -52.189549,9.7273634 -84.380752,-25.383187 -98.545832,-72.983167 -90.542271,-119.1522 c 5.61474,-32.38897 24.908699,-66.50445 49.459167,-87.45344 24.592912,-20.98521 54.423782,-33.84015 83.122862,-35.81992 35.49802,-2.44877 55.680864,-1.6165 81.617272,3.36564 13.19321,2.53429 14.64228,2.59171 16.77167,0.66465 4.53952,-4.10821 8.548,-2.66353 13.51713,4.87168 2.532,3.83954 7.30364,8.76752 10.60364,10.95107 9.61291,6.36069 18.89315,16.63593 25.14432,27.8402 l 5.81097,10.41531 -3.03886,3.23473 c -2.66207,2.83364 -2.8296,3.62575 -1.35111,6.38835 2.01459,3.76429 -0.17823,8.39955 -4.56201,9.64338 -8.20682,2.32857 -7.64144,2.78311 -6.62794,-5.32876 1.15094,-9.21181 -0.85074,-9.86025 -3.47364,-1.12526 -1.60645,5.34998 -2.47104,6.39884 -5.5684,6.75523 -4.55,0.52353 -4.62482,-1.15331 -0.33333,-7.46882 3.38744,-4.98506 4.25945,-8.28641 2.18877,-8.28641 -0.6295,0 -3.33564,3.3 -6.01361,7.33333 -3.10441,4.67558 -5.80207,7.33333 -7.44343,7.33333 -5.41745,0 -4.46257,-3.1959 3.04191,-10.18106 4.15783,-3.8701 7.55969,-7.38369 7.55969,-7.80798 0,-1.55787 -5.25278,2.11183 -12.48777,8.72421 l -7.42529,6.78629 -8.10707,-0.72134 c -4.45888,-0.39674 -8.59,-1.01982 -9.18024,-1.38461 -0.59025,-0.3648 -10.31164,-1.63102 -21.60307,-2.81384 -44.564262,-4.66826 -72.825942,2.56202 -96.264082,24.62757 -6.5596995,6.17554 -16.0957975,21.53455 -21.8679855,35.22092 -2.512389,5.95711 -4.8197045,11.08283 -5.1273675,11.3905 -0.54875,0.54874 -0.07996,-5.25296 1.387706,-17.17399 1.4916905,-12.1162 8.1862845,-28.21801 15.6964175,-37.75295 2.65904,-3.37595 3.55979,-5.53268 2.67868,-6.41379 -3.38345,-3.38345 -16.102731,18.95303 -19.9578895,35.04828 -3.419895,14.27802 -3.381662,69.831303 0.05674,82.451793 1.29866,4.76667 2.9806275,11.06667 3.7377015,14 2.297398,8.9014 7.95845195,22.2854704 12.407108,29.3333304 6.8096495,10.78831 6.6590595,10.46994 4.33649,9.1686 -11.970514,-6.70700001 -26.8032195,-25.9544304 -33.0102455,-42.8352604 -0.876344,-2.38333 -2.120561,-4.33333 -2.764925,-4.33333 -2.962759,0 -0.06204,9.03716 6.728928,20.96386 7.097037,12.4642704 21.01871345,25.7456804 40.386182,38.52883 26.43121,17.44542 33.45248,20.01422 73.713324,26.96874 4.4,0.76004 18.199998,1.21844 30.666658,1.01867 23.15155,-0.371 32.56928,-1.87839 54.66667,-8.74985 19.30977,-6.00463 38.07548,-16.76214 52.42908,-30.0551796 19.11413,-23.7687024 23.31227,-36.8027554 15.67635,-10.84042 -2.05819,7.07993 -8.3199,17.4344496 -14.34122,23.7150196 -9.58669,9.99943 -31.94069,23.88684 -49.09754,30.5018 -28.14088,10.84995 -80.66799,17.681 -112.666672,14.6521 z M 173.03399,-200.98194 c -0.0539,-0.77959 -0.36907,-1.53185 -0.82466,-1.56062 -0.40082,-0.0253 -0.86201,0.69496 -0.89662,1.4975 -0.0101,1.12198 0.38786,1.77232 0.87425,1.7842 0.37555,0.009 0.76467,-0.39296 0.84703,-1.72108 z m 0.19383,2.3677 c 0.47659,0.48967 3.08549,-0.0799 3.08107,-2.11923 -0.006,-2.61719 -2.60807,-2.8441 -3.08364,-2.53846 1.45434,1.22903 1.42587,3.25929 0.003,4.65769 z m 19.26576,24.04228 c -1.3025,-1.56943 -1.40812,-2.76071 -0.38812,-4.37774 2.2742,-3.60536 5.1107,-2.67998 5.1107,1.66732 0,4.53791 -2.17155,5.78422 -4.72258,2.71042 z"
       id="path837"
       sodipodi:nodetypes="sscsssssssscssssssssssssscssssssssssssscssccsssccssscscscssccsssss" />
    <rect
       fill="#3b5998"
       width="153.67903"
       height="153.67903"
       id="rect4"
       x="23.739922"
       y="-147.99498"
       style="stroke-width:4.26886" />
    <path
       fill="#ffffff"
       d="m 155.6264,-77.40933 -2.36068,22.326149 H 135.4176 V 9.7010699 H 108.60915 V -55.078912 H 95.243345 v -22.326149 h 13.365805 v -13.442647 c 0,-18.159742 7.54735,-29.011192 29.01119,-29.011192 h 17.84811 v 22.326154 h -11.16308 c -8.33282,0 -8.8835,3.141883 -8.8835,8.964611 v 11.163074 h 20.20453 z"
       id="path6"
       style="stroke-width:4.26886" />
  </g>
</svg>
