<?xml version="1.0" encoding="UTF-8" standalone="no"?>
<svg
   xmlns:dc="http://purl.org/dc/elements/1.1/"
   xmlns:cc="http://creativecommons.org/ns#"
   xmlns:rdf="http://www.w3.org/1999/02/22-rdf-syntax-ns#"
   xmlns:svg="http://www.w3.org/2000/svg"
   xmlns="http://www.w3.org/2000/svg"
   xmlns:xlink="http://www.w3.org/1999/xlink"
   xmlns:sodipodi="http://sodipodi.sourceforge.net/DTD/sodipodi-0.dtd"
   xmlns:inkscape="http://www.inkscape.org/namespaces/inkscape"
   version="1.1"
   id="svg2"
   width="443.33603"
   height="443.33603"
   viewBox="0 0 443.33603 443.33603"
   sodipodi:docname="logoInstagram.svg"
   inkscape:version="1.0.2 (e86c870879, 2021-01-15)">
  <metadata
     id="metadata8">
    <rdf:RDF>
      <cc:Work
         rdf:about="">
        <dc:format>image/svg+xml</dc:format>
        <dc:type
           rdf:resource="http://purl.org/dc/dcmitype/StillImage" />
        <dc:title></dc:title>
      </cc:Work>
    </rdf:RDF>
  </metadata>
  <defs
     id="defs6">
    <radialGradient
       id="d"
       cx="147.694"
       cy="473.45499"
       r="65"
       xlink:href="#b"
       gradientUnits="userSpaceOnUse"
       gradientTransform="matrix(0.17394,0.86872,-3.5818,0.71718,1682.2609,-612.95549)"
       fx="147.694"
       fy="473.45499" />
    <linearGradient
       id="b">
      <stop
         offset="0"
         stop-color="#3771c8"
         id="stop2" />
      <stop
         stop-color="#3771c8"
         offset=".128"
         id="stop4" />
      <stop
         offset="1"
         stop-color="#60f"
         stop-opacity="0"
         id="stop6" />
    </linearGradient>
    <radialGradient
       id="d-3"
       cx="147.694"
       cy="473.45499"
       r="65"
       xlink:href="#b"
       gradientUnits="userSpaceOnUse"
       gradientTransform="matrix(0.22363709,1.1169255,-4.6051704,0.92208837,2140.4183,-740.41231)"
       fx="147.694"
       fy="473.45499" />
    <radialGradient
       id="c"
       cx="158.429"
       cy="578.08801"
       r="65"
       xlink:href="#a"
       gradientUnits="userSpaceOnUse"
       gradientTransform="matrix(0,-2.5482594,2.370728,0,-1304.9738,432.79786)"
       fx="158.429"
       fy="578.08801" />
    <linearGradient
       id="a">
      <stop
         offset="0"
         stop-color="#fd5"
         id="stop9" />
      <stop
         offset=".1"
         stop-color="#fd5"
         id="stop11" />
      <stop
         offset=".5"
         stop-color="#ff543e"
         id="stop13" />
      <stop
         offset="1"
         stop-color="#c837ab"
         id="stop15" />
    </linearGradient>
  </defs>
  <sodipodi:namedview
     pagecolor="#ffffff"
     bordercolor="#666666"
     borderopacity="1"
     objecttolerance="10"
     gridtolerance="10"
     guidetolerance="10"
     inkscape:pageopacity="0"
     inkscape:pageshadow="2"
     inkscape:window-width="1312"
     inkscape:window-height="704"
     id="namedview4"
     showgrid="false"
     inkscape:zoom="0.7071068"
     inkscape:cx="338.0518"
     inkscape:cy="196.38682"
     inkscape:window-x="0"
     inkscape:window-y="0"
     inkscape:window-maximized="1"
     inkscape:current-layer="g10"
     inkscape:document-rotation="0" />
  <g
     inkscape:groupmode="layer"
     inkscape:label="Image"
     id="g10"
     transform="translate(142.90886,310.0853)">
    <circle
       style="opacity:1;fill:#ffffff;fill-opacity:1;stroke:#000000;stroke-width:16.5908;stroke-linejoin:round;stroke-miterlimit:4;stroke-dasharray:none;stroke-dashoffset:0;stroke-opacity:0.999896"
       id="path841"
       cx="78.759155"
       cy="-88.417282"
       r="213.37262" />
    <path
       style="opacity:1;fill:#000000;stroke-width:1.33333"
       d="m 70.549468,66.199003 c -35.76089,-3.38503 -54.4618,-9.13103 -81.380075,-25.00467 C -31.603301,28.944723 -41.412909,21.481323 -52.189549,9.7273634 -84.380752,-25.383187 -98.545832,-72.983167 -90.542271,-119.1522 c 5.61474,-32.38897 24.908699,-66.50445 49.459167,-87.45344 24.592912,-20.98521 54.423782,-33.84015 83.122862,-35.81992 35.49802,-2.44877 55.680864,-1.6165 81.617272,3.36564 13.19321,2.53429 14.64228,2.59171 16.77167,0.66465 4.53952,-4.10821 8.548,-2.66353 13.51713,4.87168 2.532,3.83954 7.30364,8.76752 10.60364,10.95107 9.61291,6.36069 18.89315,16.63593 25.14432,27.8402 l 5.81097,10.41531 -3.03886,3.23473 c -2.66207,2.83364 -2.8296,3.62575 -1.35111,6.38835 2.01459,3.76429 -0.17823,8.39955 -4.56201,9.64338 -8.20682,2.32857 -7.64144,2.78311 -6.62794,-5.32876 1.15094,-9.21181 -0.85074,-9.86025 -3.47364,-1.12526 -1.60645,5.34998 -2.47104,6.39884 -5.5684,6.75523 -4.55,0.52353 -4.62482,-1.15331 -0.33333,-7.46882 3.38744,-4.98506 4.25945,-8.28641 2.18877,-8.28641 -0.6295,0 -3.33564,3.3 -6.01361,7.33333 -3.10441,4.67558 -5.80207,7.33333 -7.44343,7.33333 -5.41745,0 -4.46257,-3.1959 3.04191,-10.18106 4.15783,-3.8701 7.55969,-7.38369 7.55969,-7.80798 0,-1.55787 -5.25278,2.11183 -12.48777,8.72421 l -7.42529,6.78629 -8.10707,-0.72134 c -4.45888,-0.39674 -8.59,-1.01982 -9.18024,-1.38461 -0.59025,-0.3648 -10.31164,-1.63102 -21.60307,-2.81384 -44.564262,-4.66826 -72.825942,2.56202 -96.264082,24.62757 -6.5596995,6.17554 -16.0957975,21.53455 -21.8679855,35.22092 -2.512389,5.95711 -4.8197045,11.08283 -5.1273675,11.3905 -0.54875,0.54874 -0.07996,-5.25296 1.387706,-17.17399 1.4916905,-12.1162 8.1862845,-28.21801 15.6964175,-37.75295 2.65904,-3.37595 3.55979,-5.53268 2.67868,-6.41379 -3.38345,-3.38345 -16.102731,18.95303 -19.9578895,35.04828 -3.419895,14.27802 -3.381662,69.831303 0.05674,82.451793 1.29866,4.76667 2.9806275,11.06667 3.7377015,14 2.297398,8.9014 7.95845195,22.2854704 12.407108,29.3333304 6.8096495,10.78831 6.6590595,10.46994 4.33649,9.1686 -11.970514,-6.70700001 -26.8032195,-25.9544304 -33.0102455,-42.8352604 -0.876344,-2.38333 -2.120561,-4.33333 -2.764925,-4.33333 -2.962759,0 -0.06204,9.03716 6.728928,20.96386 7.097037,12.4642704 21.01871345,25.7456804 40.386182,38.52883 26.43121,17.44542 33.45248,20.01422 73.713324,26.96874 4.4,0.76004 18.199998,1.21844 30.666658,1.01867 23.15155,-0.371 32.56928,-1.87839 54.66667,-8.74985 19.30977,-6.00463 38.07548,-16.76214 52.42908,-30.0551796 19.11413,-23.7687024 23.31227,-36.8027554 15.67635,-10.84042 -2.05819,7.07993 -8.3199,17.4344496 -14.34122,23.7150196 -9.58669,9.99943 -31.94069,23.88684 -49.09754,30.5018 -28.14088,10.84995 -80.66799,17.681 -112.666672,14.6521 z M 173.03399,-200.98194 c -0.0539,-0.77959 -0.36907,-1.53185 -0.82466,-1.56062 -0.40082,-0.0253 -0.86201,0.69496 -0.89662,1.4975 -0.0101,1.12198 0.38786,1.77232 0.87425,1.7842 0.37555,0.009 0.76467,-0.39296 0.84703,-1.72108 z m 0.19383,2.3677 c 0.47659,0.48967 3.08549,-0.0799 3.08107,-2.11923 -0.006,-2.61719 -2.60807,-2.8441 -3.08364,-2.53846 1.45434,1.22903 1.42587,3.25929 0.003,4.65769 z m 19.26576,24.04228 c -1.3025,-1.56943 -1.40812,-2.76071 -0.38812,-4.37774 2.2742,-3.60536 5.1107,-2.67998 5.1107,1.66732 0,4.53791 -2.17155,5.78422 -4.72258,2.71042 z"
       id="path837"
       sodipodi:nodetypes="sscsssssssscssssssssssssscssssssssssssscssccsssccssscscscssccsssss" />
    <path
       fill="url(#c)"
       d="m 104.7241,-150.92144 c -34.896846,0 -45.102843,0.036 -47.0867,0.20057 -7.161427,0.59529 -11.617712,1.72286 -16.472568,4.14 -3.741428,1.85786 -6.692141,4.01143 -9.604284,7.03028 -5.30357,5.50543 -8.517855,12.27857 -9.681426,20.32971 -0.565714,3.90858 -0.730286,4.70572 -0.763714,24.67029 -0.01286,6.654856 0,15.413139 0,27.160708 0,34.868564 0.03857,45.064276 0.205714,47.044276 0.578571,6.96857 1.671428,11.3528536 3.985713,16.1485672 4.422857,9.179998 12.869998,16.0714248 22.821424,18.6428538 3.445714,0.887142 7.251427,1.375714 12.13714,1.607142 2.07,0.09 23.168567,0.154286 44.279991,0.154286 21.11143,0 42.22285,-0.02571 44.24142,-0.128572 5.65714,-0.266142 8.94214,-0.707142 12.57428,-1.645713 10.01572,-2.584286 18.30857,-9.3728559 22.82143,-18.6814254 2.26928,-4.679999 3.42,-9.2314266 3.94071,-15.8361386 0.11314,-1.44 0.16071,-24.398995 0.16071,-47.327133 0,-22.931995 -0.0514,-45.848571 -0.16457,-47.288571 -0.52714,-6.71142 -1.67785,-11.22428 -4.02042,-15.99428 -1.92215,-3.90471 -4.05643,-6.82071 -7.155,-9.80228 -5.52986,-5.28171 -12.29271,-8.496 -20.35157,-9.65828 -3.90471,-0.56443 -4.68257,-0.73158 -24.66257,-0.76629 z"
       id="path22"
       style="fill:url(#c);stroke-width:1.28571" />
    <path
       fill="url(#d)"
       d="m 104.7241,-150.92144 c -34.896846,0 -45.102843,0.036 -47.0867,0.20057 -7.161427,0.59529 -11.617712,1.72286 -16.472568,4.14 -3.741428,1.85786 -6.692141,4.01143 -9.604284,7.03028 -5.30357,5.50543 -8.517855,12.27857 -9.681426,20.32971 -0.565714,3.90858 -0.730286,4.70572 -0.763714,24.67029 -0.01286,6.654856 0,15.413139 0,27.160708 0,34.868564 0.03857,45.064276 0.205714,47.044276 0.578571,6.96857 1.671428,11.3528536 3.985713,16.1485672 4.422857,9.179998 12.869998,16.0714248 22.821424,18.6428538 3.445714,0.887142 7.251427,1.375714 12.13714,1.607142 2.07,0.09 23.168567,0.154286 44.279991,0.154286 21.11143,0 42.22285,-0.02571 44.24142,-0.128572 5.65714,-0.266142 8.94214,-0.707142 12.57428,-1.645713 10.01572,-2.584286 18.30857,-9.3728559 22.82143,-18.6814254 2.26928,-4.679999 3.42,-9.2314266 3.94071,-15.8361386 0.11314,-1.44 0.16071,-24.398995 0.16071,-47.327133 0,-22.931995 -0.0514,-45.848571 -0.16457,-47.288571 -0.52714,-6.71142 -1.67785,-11.22428 -4.02042,-15.99428 -1.92215,-3.90471 -4.05643,-6.82071 -7.155,-9.80228 -5.52986,-5.28171 -12.29271,-8.496 -20.35157,-9.65828 -3.90471,-0.56443 -4.68257,-0.73158 -24.66257,-0.76629 z"
       id="path24"
       style="fill:url(#d-3);stroke-width:1.28571" />
    <path
       fill="#ffffff"
       d="m 104.68553,-129.0643 c -16.760565,0 -18.863993,0.0733 -25.446849,0.37286 -6.569999,0.30085 -11.054569,1.34099 -14.978568,2.86714 -4.058999,1.57628 -7.502142,3.68485 -10.932426,7.11642 -3.432857,3.43029 -5.541428,6.87343 -7.122856,10.93114 -1.53,3.92529 -2.571428,8.411155 -2.867142,14.978578 -0.294429,6.582856 -0.371572,8.68757 -0.371572,25.448137 0,16.760568 0.07457,18.857568 0.372857,25.440423 0.302143,6.569999 1.342286,11.054569 2.867143,14.978569 1.577571,4.058999 3.686142,7.502141 7.117712,10.932426 3.429,3.432856 6.872142,5.54657 10.928569,7.1228546 3.926571,1.526143 8.412427,2.566285 14.98114,2.867143 6.582856,0.299571 8.684998,0.3728566 25.444282,0.3728566 16.76185,0 18.85885,-0.073286 25.44171,-0.3728566 6.57,-0.300858 11.05971,-1.341 14.98628,-2.867143 4.05771,-1.5762846 7.49571,-3.6899986 10.92471,-7.1228546 3.43286,-3.430285 5.54143,-6.873427 7.12286,-10.931141 1.51714,-3.925285 2.55857,-8.411141 2.86714,-14.978568 0.29572,-6.582856 0.37286,-8.681141 0.37286,-25.441709 0,-16.760567 -0.0771,-18.863996 -0.37286,-25.446851 -0.30857,-6.569999 -1.35,-11.054574 -2.86714,-14.978574 -1.58143,-4.059 -3.69,-7.50214 -7.12286,-10.93243 -3.43285,-3.43285 -6.86571,-5.54142 -10.92857,-7.11642 -3.93428,-1.52615 -8.42142,-2.56629 -14.99142,-2.86714 -6.58286,-0.29958 -8.67857,-0.37286 -25.44428,-0.37286 z m -5.536282,11.12142 c 1.643142,-0.003 3.476572,0 5.536282,0 16.47772,0 18.43071,0.0591 24.93771,0.35486 6.01714,0.27514 9.28286,1.28057 11.45829,2.12529 2.88,1.11857 4.93328,2.45571 7.09199,4.61571 2.16,2.16 3.49715,4.21714 4.61829,7.09714 0.84471,2.17286 1.85143,5.438575 2.12528,11.455718 0.29572,6.505713 0.36,8.459998 0.36,24.929994 0,16.469997 -0.0643,18.424282 -0.36,24.929995 -0.27514,6.017142 -1.28057,9.282855 -2.12528,11.455712 -1.11857,2.879999 -2.45829,4.930713 -4.61829,7.089427 -2.15999,2.159999 -4.21071,3.497142 -7.09199,4.615713 -2.17286,0.848571 -5.44115,1.851428 -11.45829,2.126571 -6.50571,0.295714 -8.45999,0.36 -24.93771,0.36 -16.478994,0 -18.431994,-0.06429 -24.937706,-0.36 -6.017142,-0.277714 -9.282855,-1.283142 -11.459569,-2.127857 -2.88,-1.118571 -4.937142,-2.455713 -7.097142,-4.615713 -2.159999,-2.159999 -3.497142,-4.211999 -4.618284,-7.093284 -0.844714,-2.172857 -1.851428,-5.43857 -2.125286,-11.455712 -0.295714,-6.505713 -0.354857,-8.459998 -0.354857,-24.94028 0,-16.480282 0.05914,-18.424282 0.354857,-24.929995 0.275143,-6.017144 1.280572,-9.282859 2.125286,-11.458289 1.118571,-2.88 2.458285,-4.93714 4.618284,-7.09714 2.16,-2.16 4.217142,-3.49714 7.097142,-4.61828 2.175428,-0.84858 5.442427,-1.85143 11.459569,-2.12786 5.693141,-0.25714 7.899426,-0.33429 19.401424,-0.34714 z m 38.478852,10.24714 c -4.08857,0 -7.40571,3.31329 -7.40571,7.40315 0,4.088575 3.31714,7.405714 7.40571,7.405714 4.08857,0 7.40571,-3.317139 7.40571,-7.405714 0,-4.08857 -3.31714,-7.40572 -7.40571,-7.40572 z m -32.94257,8.652865 c -17.502422,0 -31.692848,14.190426 -31.692848,31.69285 0,17.502425 14.190426,31.686422 31.692848,31.686422 17.50243,0 31.68771,-14.183997 31.68771,-31.686422 0,-17.502424 -14.18657,-31.69285 -31.68899,-31.69285 z m 0,11.121426 c 11.36057,0 20.57143,9.20957 20.57143,20.571424 0,11.360569 -9.21086,20.571424 -20.57143,20.571424 -11.361852,0 -20.571422,-9.210855 -20.571422,-20.571424 0,-11.361854 9.20957,-20.571424 20.571422,-20.571424 z"
       id="path26"
       style="stroke-width:1.28571" />
  </g>
</svg>
